<?xml version="1.0" encoding="UTF-8" standalone="no"?>
<!DOCTYPE svg PUBLIC "-//W3C//DTD SVG 1.1//EN" "http://www.w3.org/Graphics/SVG/1.1/DTD/svg11.dtd">
<svg width="100%" height="100%" viewBox="0 0 32 32" version="1.1" xmlns="http://www.w3.org/2000/svg" xmlns:xlink="http://www.w3.org/1999/xlink" xml:space="preserve" xmlns:serif="http://www.serif.com/" style="fill-rule:evenodd;clip-rule:evenodd;stroke-linejoin:round;stroke-miterlimit:2;">
    <g>
        <rect x="0" y="0" width="32" height="32" style="fill:none;"/>
        <path d="M9.467,30.608C11.336,29.595 12.157,28.388 12.519,27.208L21.294,27.208L21.294,29.015C21.294,29.221 21.155,29.332 20.683,29.332C20.072,29.332 17.129,29.237 17.129,29.237L17.129,29.441C18.545,29.584 19.156,29.79 19.6,30.075C20.043,30.375 20.182,30.801 20.293,31.416C18.927,31.797 17.487,32 16,32C13.673,32 11.462,31.502 9.467,30.608ZM3.612,26.122C5.861,25.468 7.778,24.64 9.437,23.71L9.437,25.118C9.437,26.767 9.37,28.521 8.363,30.06C6.535,29.065 4.922,27.722 3.612,26.122ZM3.431,25.896C1.282,23.172 -0,19.734 -0,16C-0,7.169 7.169,-0 16,-0C24.831,-0 32,7.169 32,16C32,21.671 29.043,26.657 24.589,29.498C24.595,29.414 24.598,29.326 24.598,29.236L24.598,22.759C25.237,22.695 25.653,22.537 25.848,22.379L22.515,20.923L20.988,21.953L13.297,21.953L12.38,21.763C13.241,21.113 13.963,20.447 14.602,19.766L27.902,19.766C28.291,19.766 28.597,19.687 28.68,19.514C27.375,18.865 25.209,17.947 25.209,17.947L23.265,19.309L15.018,19.309C15.518,18.723 15.962,18.153 16.351,17.583C17.073,17.583 17.323,17.472 17.434,17.282L12.908,16.538C12.547,17.424 12.019,18.343 11.353,19.309L3.467,19.309L3.717,19.766L11.02,19.766C9.347,21.998 6.809,24.259 3.431,25.896ZM12.63,26.751C12.741,26.18 12.769,25.641 12.769,25.118L12.769,24.785L21.294,24.785L21.294,26.751L12.63,26.751ZM21.294,22.394L21.294,24.328L12.769,24.328L12.769,22.394L21.294,22.394ZM28.263,9.495C28.68,9.495 28.958,9.416 29.041,9.242C27.764,8.625 25.737,7.737 25.737,7.737L23.904,9.037L10.548,9.037L10.548,7.373L20.655,7.373L20.655,8.039L21.183,8.039C22.293,8.039 23.904,7.69 23.932,7.563L23.932,4.935C24.487,4.871 24.876,4.713 25.042,4.586L21.877,3.226L20.377,4.176L15.24,4.176C16.101,3.78 17.212,3.242 17.906,2.862C18.517,2.846 18.906,2.72 19.017,2.435L14.241,2.007C14.102,2.64 13.852,3.575 13.63,4.176L10.742,4.176L7.271,3.385L7.271,12.361L7.771,12.361C9.159,12.361 10.548,11.933 10.548,11.727L10.548,11.601L24.154,11.601C23.848,13.533 23.376,14.69 22.765,14.959C22.543,15.07 22.321,15.086 21.876,15.086C21.318,15.086 19.673,15.039 18.753,14.991L18.725,15.197C19.757,15.323 20.593,15.513 20.984,15.782C21.402,16.035 21.486,16.462 21.486,16.968C22.96,16.968 24.015,16.81 24.876,16.462C26.264,15.924 26.958,14.532 27.291,11.886C27.875,11.838 28.208,11.743 28.402,11.616L25.542,10.256L23.932,11.143L10.548,11.143L10.548,9.495L28.263,9.495ZM6.605,12.567C6.66,13.518 5.466,14.246 4.328,14.531C3.412,14.753 2.745,15.196 3.023,15.782C3.356,16.415 4.606,16.605 5.633,16.32C7.188,15.908 8.382,14.531 6.994,12.551L6.605,12.567ZM9.409,12.551C9.743,13.406 9.798,14.515 9.382,15.513C11.436,17.049 15.129,14.515 9.743,12.487L9.409,12.551ZM13.102,12.408C13.908,13.073 14.713,14.103 14.741,14.99C17.212,16.225 20.008,13.406 13.38,12.313L13.102,12.408ZM17.184,12.091C18.259,12.535 19.422,13.359 19.729,14.055C22.404,14.895 24.126,11.982 17.406,11.967L17.184,12.091ZM20.655,4.618L20.655,6.916L10.548,6.916L10.548,4.618L20.655,4.618Z" style="fill:rgb(2,126,172);"/>
    </g>
</svg>
